<?xml version="1.0" encoding="iso-8859-1"?>
<!-- Generator: Adobe Illustrator 19.0.0, SVG Export Plug-In . SVG Version: 6.00 Build 0)  -->
<svg version="1.1" id="Capa_1" xmlns="http://www.w3.org/2000/svg" xmlns:xlink="http://www.w3.org/1999/xlink" x="0px" y="0px"
	 viewBox="0 0 512.002 512.002" style="enable-background:new 0 0 512.002 512.002;" xml:space="preserve">
<g>
	<g>
		<g>
			<path d="M503.251,349.238c0-38.825-19.094-75.169-53.763-102.339c-20.146-15.788-44.183-27.366-70.379-34.172
				c9.867-18.641,15.059-38.832,15.059-59.542c0-41.386-20.365-80.138-57.346-109.118C300.563,15.65,252.49,0,201.46,0
				c-51.03,0-99.101,15.65-135.363,44.067C29.117,73.048,8.751,111.8,8.751,153.186c0,25.004,7.721,49.806,22.328,71.724
				c12.205,18.312,29.217,34.651,49.567,47.682c-5.512,7.708-12.755,14.573-21.627,20.484c-6.532,4.352-9.478,12.084-7.503,19.697
				c1.976,7.619,8.313,12.949,16.144,13.578c4.353,0.35,9.052,0.565,14.032,0.565c19.421,0,43.058-3.283,66.599-14.657
				c-3.944,11.909-5.99,24.311-5.99,36.98c0,38.825,19.094,75.169,53.763,102.339c33.95,26.606,78.951,41.259,126.713,41.259
				c11.72,0,23.445-0.903,34.914-2.688c26.735,17.369,54.933,21.853,76.907,21.853c3.984,0,7.766-0.147,11.296-0.392
				c7.82-0.542,14.208-5.776,16.272-13.334c2.075-7.594-0.778-15.387-7.27-19.853c-7.466-5.137-13.639-11.031-18.437-17.591
				C478.478,433.701,503.251,392.623,503.251,349.238z M417.695,448.823c-4.695,2.664-6.429,8.573-3.917,13.351
				c5.965,11.348,14.584,21.336,25.657,29.747c-20.355,0.695-48.17-2.708-73.754-20.493c-1.687-1.172-3.681-1.789-5.708-1.789
				c-0.572,0-1.147,0.049-1.719,0.149c-11.604,2.024-23.542,3.05-35.48,3.05c-88.486,0-160.476-55.446-160.476-123.598
				c0-15.69,3.824-30.703,10.777-44.524c9.383,1.1,18.884,1.656,28.383,1.656c19.325,0,38.401-2.262,56.7-6.722
				c5.366-1.308,8.655-6.718,7.348-12.083c-1.309-5.366-6.717-8.658-12.084-7.347c-16.75,4.083-34.233,6.153-51.964,6.153
				c-5.453,0-10.905-0.211-16.33-0.607c-7.346-0.536-14.642-1.421-21.819-2.672c-0.272-0.047-0.544-0.077-0.817-0.102
				c-2.336-0.212-4.673,0.395-6.61,1.742c-28.307,19.678-59.102,23.07-81.511,22.011c12.567-9.198,22.282-20.23,28.918-32.851
				c2.512-4.778,0.778-10.687-3.917-13.351c-44.222-25.089-70.623-65.222-70.623-107.354C28.751,79.747,106.228,20,201.46,20
				s172.709,59.747,172.709,133.186c0,19.248-5.403,38.056-15.612,55.261c-3.784,6.378-8.231,12.534-13.308,18.412
				c-4.62,5.347-9.754,10.466-15.397,15.305c-1.08,0.926-2.175,1.839-3.287,2.741c-4.289,3.479-4.947,9.776-1.469,14.065
				c3.479,4.29,9.776,4.947,14.066,1.469c1.253-1.016,2.488-2.046,3.706-3.091c9.609-8.239,17.955-17.21,24.974-26.738
				c66.616,15.038,115.408,62.524,115.408,118.629C483.25,388.307,458.743,425.534,417.695,448.823z"/>
			<path d="M111.668,149.454c-18.013,0-32.667,14.654-32.667,32.667c0,18.013,14.655,32.667,32.667,32.667
				c18.012,0,32.666-14.654,32.666-32.667C144.334,164.109,129.68,149.454,111.668,149.454z M111.668,194.789
				c-6.984,0-12.667-5.683-12.667-12.667s5.683-12.667,12.667-12.667c6.984,0,12.666,5.682,12.666,12.667
				S118.652,194.789,111.668,194.789z"/>
			<path d="M197.668,149.454c-18.013,0-32.667,14.654-32.667,32.667c0,18.013,14.655,32.667,32.667,32.667
				c18.012,0,32.666-14.654,32.666-32.667C230.334,164.109,215.68,149.454,197.668,149.454z M197.668,194.789
				c-6.984,0-12.667-5.683-12.667-12.667s5.683-12.667,12.667-12.667c6.984,0,12.666,5.682,12.666,12.667
				S204.652,194.789,197.668,194.789z"/>
			<path d="M316.334,182.121c0-18.012-14.654-32.667-32.666-32.667c-18.013,0-32.667,14.654-32.667,32.667
				c0,13.168,7.836,24.533,19.085,29.698c4.139,1.901,8.737,2.969,13.582,2.969c8.449,0,16.159-3.225,21.964-8.508
				C312.203,200.301,316.334,191.684,316.334,182.121z M283.668,194.789c-6.984,0-12.667-5.683-12.667-12.667
				s5.683-12.667,12.667-12.667s12.666,5.682,12.666,12.667S290.652,194.789,283.668,194.789z"/>
			<path d="M298.301,284.62c0.65,0,1.31-0.06,1.95-0.19s1.27-0.32,1.87-0.57c0.609-0.25,1.189-0.56,1.729-0.92
				c0.55-0.37,1.061-0.78,1.521-1.24c0.46-0.47,0.88-0.98,1.239-1.53c0.36-0.54,0.671-1.12,0.921-1.72
				c0.25-0.61,0.449-1.23,0.569-1.87c0.13-0.65,0.2-1.31,0.2-1.96c0-2.63-1.07-5.2-2.93-7.07c-0.46-0.46-0.971-0.88-1.521-1.24
				c-0.54-0.36-1.12-0.67-1.729-0.92c-0.601-0.25-1.23-0.44-1.87-0.57c-1.29-0.26-2.62-0.26-3.91,0c-0.63,0.13-1.26,0.32-1.87,0.57
				c-0.6,0.25-1.18,0.56-1.72,0.92c-0.55,0.36-1.061,0.78-1.521,1.24c-1.859,1.86-2.93,4.44-2.93,7.07c0,0.65,0.06,1.31,0.19,1.96
				c0.13,0.64,0.319,1.26,0.569,1.87c0.25,0.6,0.561,1.18,0.92,1.72c0.37,0.55,0.79,1.06,1.25,1.53c0.46,0.46,0.971,0.87,1.521,1.24
				c0.54,0.36,1.12,0.67,1.72,0.92c0.61,0.25,1.24,0.44,1.87,0.57C296.991,284.56,297.651,284.62,298.301,284.62z"/>
			<path d="M243.001,341.455c-18.013,0-32.667,14.654-32.667,32.667s14.654,32.667,32.667,32.667
				c18.013,0,32.667-14.654,32.667-32.667C275.668,356.109,261.014,341.455,243.001,341.455z M243.001,386.788
				c-6.984,0-12.667-5.683-12.667-12.667c0-6.984,5.683-12.667,12.667-12.667c6.984,0,12.667,5.682,12.667,12.667
				S249.986,386.788,243.001,386.788z"/>
			<path d="M329.001,341.454c-18.013,0-32.667,14.655-32.667,32.667c0,18.013,14.654,32.667,32.667,32.667
				s32.667-14.654,32.667-32.667C361.668,356.109,347.014,341.454,329.001,341.454z M329.001,386.789
				c-6.984,0-12.667-5.683-12.667-12.667c0-6.984,5.683-12.667,12.667-12.667s12.667,5.682,12.667,12.667
				S335.985,386.789,329.001,386.789z"/>
			<path d="M415.001,341.454c-18.013,0-32.667,14.654-32.667,32.667s14.655,32.667,32.667,32.667
				c18.013,0,32.667-14.654,32.667-32.667C447.668,356.109,433.014,341.454,415.001,341.454z M415.001,386.789
				c-6.984,0-12.667-5.683-12.667-12.667c0-6.984,5.683-12.667,12.667-12.667s12.667,5.682,12.667,12.667
				S421.985,386.789,415.001,386.789z"/>
		</g>
	</g>
</g>
<g>
</g>
<g>
</g>
<g>
</g>
<g>
</g>
<g>
</g>
<g>
</g>
<g>
</g>
<g>
</g>
<g>
</g>
<g>
</g>
<g>
</g>
<g>
</g>
<g>
</g>
<g>
</g>
<g>
</g>
</svg>
