<?xml version="1.0" encoding="utf-8"?>
<!-- Generator: Adobe Illustrator 19.0.0, SVG Export Plug-In . SVG Version: 6.00 Build 0)  -->
<svg version="1.1" id="Layer_1" xmlns="http://www.w3.org/2000/svg" xmlns:xlink="http://www.w3.org/1999/xlink" x="0px" y="0px"
	 viewBox="-147 365 496 496" style="enable-background:new -147 365 496 496;" xml:space="preserve">
<style type="text/css">
	.st0{fill:#FFFFFF;}
</style>
<g>
	<g>
		<g>
			<path class="st0" d="M170.3,535.1h-1.7c6-2.3,10.2-8.1,10.2-14.9v-55.6c0-8.8-7.1-16-15.9-16l-45.9-0.2
				c-57.9,0-78.5,42.2-78.5,78.3v8.4c-8.6,0.3-15.5,7.3-15.5,16V613c0,8.7,6.9,15.7,15.5,16v138.7c0,8.8,7.2,16,16,16h61.9
				c8.8,0,16-7.2,16-16V629h32.4c8.3,0,15.2-6.3,15.9-14.6l5.4-61.9c0.4-4.5-1.1-8.9-4.1-12.2S174.8,535.1,170.3,535.1z M150.2,597
				h-33.8c-8.8,0-16,7.2-16,16v138.7H70.6V613c0-8.7-6.9-15.7-15.5-16v-29.9c8.6-0.3,15.5-7.3,15.5-16v-24.4
				c0-17.3,6-46.3,46.4-46.3l29.9,0.1v23.6l-16-0.1c-28.9,0-30.3,21.5-30.3,25.8v21.3c0,8.8,7.2,16,16,16h36.4L150.2,597z"/>
			<path class="st0" d="M219.8,365H-17.9C-92.7,365-147,419.3-147,494.2v237.6C-147,806.7-92.7,861-17.9,861h237.7
				c74.9,0,129.2-54.3,129.2-129.2V494.2C349,419.3,294.7,365,219.8,365z M317,731.8c0,57.2-40,97.2-97.2,97.2H-17.9
				c-57.2,0-97.1-40-97.1-97.2V494.2c0-57.2,40-97.2,97.1-97.2h237.7c57.2,0,97.2,40,97.2,97.2V731.8z"/>
		</g>
	</g>
</g>
</svg>
