<?xml version="1.0" encoding="utf-8"?>
<!-- Generator: Adobe Illustrator 19.0.0, SVG Export Plug-In . SVG Version: 6.00 Build 0)  -->
<svg version="1.1" id="Layer_1" xmlns="http://www.w3.org/2000/svg" xmlns:xlink="http://www.w3.org/1999/xlink" x="0px" y="0px"
	 viewBox="-147 365 496 496" style="enable-background:new -147 365 496 496;" xml:space="preserve">
<style type="text/css">
	.st0{fill:#FFFFFF;}
</style>
<g>
	<g>
		<path class="st0" d="M143.9,579.2c-10-13.8-26-22-42.9-22s-33,8.2-42.9,22c-6.5,9.1-10,19.8-10,30.9C48,639.3,71.8,663,101,663
			s53-23.7,53-52.9C153.9,599,150.5,588.3,143.9,579.2z M101,631c-11.6,0-20.9-9.4-20.9-20.9c0-4.4,1.4-8.6,4-12.2
			c4-5.6,10.2-8.8,17-8.8s13,3.2,17,8.8c2.6,3.6,4,7.8,4,12.2C121.9,621.7,112.5,631,101,631z"/>
	</g>
</g>
<g>
	<g>
		<path class="st0" d="M255.7,581.5h-79.4c-4.9,0-9.6,2.3-12.6,6.1s-4.1,8.9-2.9,13.7c2.1,8.4,4,12.4,5.4,14.5
			c0.1,0.6,0.1,1.4,0.1,2.5c0,34.5-28.1,60.5-65.3,60.5c-38.5,0-65.3-23.9-65.3-58.1c0-2.6,0.2-3.3,0.2-3.3c0.1-0.6,0.4-1,0.6-1.6
			c1.1-2.7,2.8-6.8,4.7-14.6c1.2-4.8,0.1-9.8-2.9-13.7s-7.7-6.1-12.6-6.1h-79.3c-8.8,0-16,7.2-16,16c0,8.8,7.2,16,16,16H4.1
			c-0.3,2-0.4,4.4-0.4,7.3c0,51.4,41.8,90.1,97.3,90.1c55.5,0,97.3-39.8,97.3-92.5c0-1.8-0.1-3.4-0.2-4.9h57.6c8.8,0,16-7.2,16-16
			C271.7,588.7,264.5,581.5,255.7,581.5z"/>
	</g>
</g>
<g>
	<g>
		<path class="st0" d="M249.7,510.7C249.7,510.7,249.7,510.7,249.7,510.7l-68.7,0.1l-0.1-52.6c0-8.8-7.2-16-16-16c0,0,0,0,0,0
			c-8.8,0-16,7.2-16,16l0.2,68.6c0,8.8,7.2,16,16,16c0,0,0,0,0,0l84.7-0.2c8.8,0,16-7.2,16-16C265.7,517.8,258.5,510.7,249.7,510.7z
			"/>
	</g>
</g>
<g>
	<g>
		<g>
			<path class="st0" d="M192.2,442.3H9.7c-42.3,0-79.4,34.3-79.4,73.4v182.5c0,38.4,36.6,85.4,79.4,85.4h182.5
				c42.8,0,79.5-47,79.5-85.4V515.8C271.7,476.6,234.6,442.3,192.2,442.3z M239.7,698.2c0,24.5-25.7,53.4-47.5,53.4H9.7
				c-21.7,0-47.4-29-47.4-53.4V515.8c0-21.3,23-41.4,47.4-41.4h182.5c24.4,0,47.5,20.1,47.5,41.4V698.2z"/>
			<path class="st0" d="M220,365H-18c-76,0-129,50.6-129,123V726c0,75.7,56.7,135,129,135h238c72.4,0,129-59.3,129-135V488
				C349,415.6,295.9,365,220,365z M317,726c0,58.7-41.7,103-97,103H-18c-55.3,0-97-44.3-97-103V488c0-55.3,38.1-91,97-91h238
				c58.9,0,97,35.7,97,91V726z"/>
		</g>
	</g>
</g>
</svg>
