<?xml version="1.0" encoding="utf-8"?>
<!-- Generator: Adobe Illustrator 19.0.0, SVG Export Plug-In . SVG Version: 6.00 Build 0)  -->
<svg version="1.1" id="Layer_1" xmlns="http://www.w3.org/2000/svg" xmlns:xlink="http://www.w3.org/1999/xlink" x="0px" y="0px"
	 viewBox="-147 365 496 496" style="enable-background:new -147 365 496 496;" xml:space="preserve">
<style type="text/css">
	.st0{fill:#FFFFFF;}
</style>
<g>
	<g>
		<g>
			<path class="st0" d="M218,365H-16c-73.5,0-131,57.5-131,131v234c0,73.5,57.5,131,131,131h234c73.5,0,131-57.5,131-131V496
				C349,422.5,291.4,365,218,365z M317,730c0,55.5-43.5,99-99,99H-16c-55.5,0-99-43.5-99-99V496c0-55.5,43.5-99,99-99h234
				c55.5,0,99,43.5,99,99V730z"/>
			<path class="st0" d="M257,491.6c-5.1-3.8-12-4.1-17.5-0.9c-5.5,3.2-17.6,4.8-27.3,6.1c-2,0.3-4,0.5-5.9,0.8
				c-13.6-11.3-31-17.6-48.9-17.6c-40.4,0-73.6,31.3-75.9,70.6c-36.6-6.2-70.2-25.3-94-54c-3.5-4.3-9-6.4-14.6-5.7
				c-5.5,0.8-10.2,4.3-12.4,9.4c-1,2.3-10,24.3-10,78.6c0,47.1,37.1,81.6,62.6,99.8c-17.4,7.9-37.5,10.8-56.6,8.7
				c-7.5-0.8-14.4,3.6-16.9,10.6c-2.5,7,0.3,14.8,6.6,18.8c30.1,19,64.8,29,100.6,29c114.7,0,184.1-90.1,186.7-178.9
				c3.3-4.8,9.6-14.1,20.2-30.4c4.3-6.6,7.8-20.8,9.6-28.6C264.6,501.8,262.1,495.4,257,491.6z M204.5,552.5c-2,2.7-3,6-3,9.4
				c0,63.2-48,152.1-154.8,152.1c-9.6,0-19.2-0.9-28.6-2.6c12.5-4.7,24.3-11.3,35.2-19.7c4.4-3.3,6.7-8.7,6.2-14.2
				c-0.5-5.5-3.8-10.3-8.7-12.8c-0.7-0.4-68.3-35.9-68.3-85.7c0-16.7,0.9-29.8,2.1-39.8c31.4,27,71.4,43.2,113.4,45.3
				c0.3,0,0.7,0,1,0c9.3-0.3,16.2-7.1,16.2-16c0-2.2-0.4-4.3-1.3-6.2c-0.4-2.4-0.6-4.8-0.6-7.2c0-23.8,19.7-43.1,44-43.1
				c12.2,0,23.9,5,32.2,13.7c3.8,3.9,9.3,5.7,14.6,4.7c3.6-0.7,7.8-1.2,12.2-1.8c1.6-0.2,3.2-0.4,4.8-0.6
				C209.1,546.2,204.7,552.2,204.5,552.5z"/>
		</g>
	</g>
</g>
</svg>
