<?xml version="1.0" encoding="utf-8"?>
<!-- Generator: Adobe Illustrator 19.0.0, SVG Export Plug-In . SVG Version: 6.00 Build 0)  -->
<svg version="1.1" id="Layer_1" xmlns="http://www.w3.org/2000/svg" xmlns:xlink="http://www.w3.org/1999/xlink" x="0px" y="0px"
	 viewBox="0 0 792 612" style="enable-background:new 0 0 792 612;" xml:space="preserve">
<style type="text/css">
	.st0{fill:#F6B630;}
</style>
<g>
	<g>
		<path class="st0" d="M396,50c-141.2,0-256,114.8-256,256s114.8,256,256,256s256-114.8,256-256S537.2,50,396,50z M475.1,321.1
			L368.4,427.7c-4.2,4.2-9.6,6.3-15.1,6.3c-5.5,0-10.9-2.1-15.1-6.3c-8.3-8.3-8.3-21.8,0-30.2l91.6-91.6l-91.6-91.6
			c-8.3-8.3-8.3-21.8,0-30.2s21.8-8.3,30.2,0l106.7,106.7C483.4,299.3,483.4,312.7,475.1,321.1z"/>
	</g>
</g>
</svg>
